# xmcd CD database file
#
# Track frame offsets:
#	183
#	9868
#	18643
#	32568
#	46120
#	59890
#	73763
#	87635
#	103265
#	116658
#	129085
#	143450
#	158235
#	173508
#	184650
#	199130
#
# Disc length: 2840 seconds
#
# Revision: 0
# Processed by: cddbd v1.4PL0 Copyright (c) Steve Scherf et al.
# Submitted via: CDex 1.51
#
DISCID=d50b1610
DTITLE=Jean Sablon - Du caf'conc au Music Hall
DYEAR=1991
DGENRE=Country
TTITLE0=Syracuse
TTITLE1=Merci à vous
TTITLE2=Reviens
TTITLE3=Qui vivra verra
TTITLE4=La chanson des rues
TTITLE5=C'est le printemps
TTITLE6=Ciel de Paris
TTITLE7=Un seul couvert, please, James
TTITLE8=Je tire ma révérence
TTITLE9=Rêverie
TTITLE10=Laura
TTITLE11=La dame en gris (Soudain)
TTITLE12=Môm ! de mon coeur
TTITLE13=Praline
TTITLE14=La bouillabaisse
TTITLE15=Ce n'est que votre main, Madame
EXTD=YEAR: 1991
EXTT0=
EXTT1=
EXTT2=
EXTT3=
EXTT4=
EXTT5=
EXTT6=
EXTT7=
EXTT8=
EXTT9=
EXTT10=
EXTT11=
EXTT12=
EXTT13=
EXTT14=
EXTT15=
PLAYORDER=
